# xmcd
#
# Track frame offsets:
#	150
#	26462
#	41500
#	67750
#	84425
#	105450
#	136187
#	157225
#	176475
#	202600
#	227662
#	251250
#	271550
#	297575
#
# Disc length: 4248 seconds
#
# Revision: 2
# Processed by: cddbd v1.5.1PL0 Copyright (c) Steve Scherf et al.
# Submitted via: EasyCDDAExtractor 8.1.4.1
#
DISCID=aa10960e
DTITLE=Nguoi Dep Binh Duong - Gui Ve Em
DYEAR=1900
DGENRE=Blues
TTITLE0=Nguoi o lai charlie
TTITLE1=Tinh nghia doi ta
TTITLE2=Thoi
TTITLE3=Mot ngay khong co em
TTITLE4=Tinh la soi to
TTITLE5=Neu mot ngay
TTITLE6=Gui ve em
TTITLE7=Truc dao
TTITLE8=Tinh thu cua linh
TTITLE9=Hanh trang gia tu
TTITLE10=Ngay vui qua mau
TTITLE11=Nhung tam hon co don
TTITLE12=Loi tu tinh
TTITLE13=Ngoai o den vang
EXTD=
EXTT0=
EXTT1=
EXTT2=
EXTT3=
EXTT4=
EXTT5=
EXTT6=
EXTT7=
EXTT8=
EXTT9=
EXTT10=
EXTT11=
EXTT12=
EXTT13=
PLAYORDER=
